<mxfile host="app.diagrams.net" agent="Mozilla/5.0 (Windows NT 10.0; Win64; x64) AppleWebKit/537.36 (KHTML, like Gecko) Chrome/129.0.0.0 Safari/537.36" version="24.7.17">
  <diagram name="第 1 页" id="nkP1tnZnkvJA1pigFi4f">
    <mxGraphModel dx="2203" dy="728" grid="1" gridSize="10" guides="1" tooltips="1" connect="1" arrows="1" fold="1" page="1" pageScale="1" pageWidth="827" pageHeight="1169" math="0" shadow="0">
      <root>
        <mxCell id="0" />
        <mxCell id="1" parent="0" />
        <mxCell id="cl5pzR8hT98w7Jfpxouv-1" value="" style="rounded=0;whiteSpace=wrap;html=1;strokeColor=none;" vertex="1" parent="1">
          <mxGeometry x="-120" y="80" width="870" height="410" as="geometry" />
        </mxCell>
        <mxCell id="cl5pzR8hT98w7Jfpxouv-8" value="" style="edgeStyle=orthogonalEdgeStyle;rounded=0;orthogonalLoop=1;jettySize=auto;html=1;entryX=0.5;entryY=0;entryDx=0;entryDy=0;" edge="1" parent="1" source="cl5pzR8hT98w7Jfpxouv-2" target="cl5pzR8hT98w7Jfpxouv-3">
          <mxGeometry relative="1" as="geometry">
            <mxPoint x="145" y="120" as="targetPoint" />
          </mxGeometry>
        </mxCell>
        <mxCell id="cl5pzR8hT98w7Jfpxouv-10" value="" style="edgeStyle=orthogonalEdgeStyle;rounded=0;orthogonalLoop=1;jettySize=auto;html=1;entryX=0.5;entryY=0;entryDx=0;entryDy=0;" edge="1" parent="1" source="cl5pzR8hT98w7Jfpxouv-2" target="cl5pzR8hT98w7Jfpxouv-5">
          <mxGeometry relative="1" as="geometry">
            <mxPoint x="400" y="120" as="targetPoint" />
          </mxGeometry>
        </mxCell>
        <mxCell id="cl5pzR8hT98w7Jfpxouv-11" value="" style="edgeStyle=orthogonalEdgeStyle;rounded=0;orthogonalLoop=1;jettySize=auto;html=1;" edge="1" parent="1" source="cl5pzR8hT98w7Jfpxouv-2" target="cl5pzR8hT98w7Jfpxouv-4">
          <mxGeometry relative="1" as="geometry" />
        </mxCell>
        <mxCell id="cl5pzR8hT98w7Jfpxouv-2" value="ES" style="rounded=1;whiteSpace=wrap;html=1;fillColor=#dae8fc;strokeColor=#6c8ebf;" vertex="1" parent="1">
          <mxGeometry x="225" y="100" width="95" height="40" as="geometry" />
        </mxCell>
        <mxCell id="cl5pzR8hT98w7Jfpxouv-12" value="" style="edgeStyle=orthogonalEdgeStyle;rounded=0;orthogonalLoop=1;jettySize=auto;html=1;" edge="1" parent="1" source="cl5pzR8hT98w7Jfpxouv-3" target="cl5pzR8hT98w7Jfpxouv-6">
          <mxGeometry relative="1" as="geometry" />
        </mxCell>
        <mxCell id="cl5pzR8hT98w7Jfpxouv-3" value="Book" style="rounded=1;whiteSpace=wrap;html=1;fillColor=#d5e8d4;strokeColor=#82b366;" vertex="1" parent="1">
          <mxGeometry x="44" y="190" width="95" height="40" as="geometry" />
        </mxCell>
        <mxCell id="cl5pzR8hT98w7Jfpxouv-17" value="" style="edgeStyle=orthogonalEdgeStyle;rounded=0;orthogonalLoop=1;jettySize=auto;html=1;" edge="1" parent="1" source="cl5pzR8hT98w7Jfpxouv-4" target="cl5pzR8hT98w7Jfpxouv-16">
          <mxGeometry relative="1" as="geometry" />
        </mxCell>
        <mxCell id="cl5pzR8hT98w7Jfpxouv-4" value="Travel" style="rounded=1;whiteSpace=wrap;html=1;fillColor=#d5e8d4;strokeColor=#82b366;" vertex="1" parent="1">
          <mxGeometry x="225" y="190" width="95" height="40" as="geometry" />
        </mxCell>
        <mxCell id="cl5pzR8hT98w7Jfpxouv-19" value="" style="edgeStyle=orthogonalEdgeStyle;rounded=0;orthogonalLoop=1;jettySize=auto;html=1;" edge="1" parent="1" source="cl5pzR8hT98w7Jfpxouv-5" target="cl5pzR8hT98w7Jfpxouv-18">
          <mxGeometry relative="1" as="geometry" />
        </mxCell>
        <mxCell id="cl5pzR8hT98w7Jfpxouv-5" value="Budget" style="rounded=1;whiteSpace=wrap;html=1;fillColor=#d5e8d4;strokeColor=#82b366;" vertex="1" parent="1">
          <mxGeometry x="417" y="190" width="95" height="40" as="geometry" />
        </mxCell>
        <mxCell id="cl5pzR8hT98w7Jfpxouv-21" value="" style="edgeStyle=orthogonalEdgeStyle;rounded=0;orthogonalLoop=1;jettySize=auto;html=1;" edge="1" parent="1" source="cl5pzR8hT98w7Jfpxouv-6" target="cl5pzR8hT98w7Jfpxouv-20">
          <mxGeometry relative="1" as="geometry" />
        </mxCell>
        <mxCell id="cl5pzR8hT98w7Jfpxouv-6" value="user" style="rounded=1;whiteSpace=wrap;html=1;fillColor=#ffe6cc;strokeColor=#d79b00;" vertex="1" parent="1">
          <mxGeometry x="44" y="295" width="95" height="40" as="geometry" />
        </mxCell>
        <mxCell id="cl5pzR8hT98w7Jfpxouv-13" value="ES单节点、分布式节点" style="text;html=1;align=center;verticalAlign=middle;whiteSpace=wrap;rounded=0;" vertex="1" parent="1">
          <mxGeometry x="530" y="110" width="140" height="30" as="geometry" />
        </mxCell>
        <mxCell id="cl5pzR8hT98w7Jfpxouv-14" value="Index索引，类比MySQL的数据库" style="text;html=1;align=center;verticalAlign=middle;whiteSpace=wrap;rounded=0;" vertex="1" parent="1">
          <mxGeometry x="524" y="195" width="180" height="30" as="geometry" />
        </mxCell>
        <mxCell id="cl5pzR8hT98w7Jfpxouv-15" value="type类型，类别MySQL的表&lt;div&gt;ES7不硬性要求,&lt;span style=&quot;background-color: initial;&quot;&gt;ES8删除type类型&lt;/span&gt;&lt;/div&gt;" style="text;html=1;align=center;verticalAlign=middle;whiteSpace=wrap;rounded=0;" vertex="1" parent="1">
          <mxGeometry x="524" y="300" width="196" height="30" as="geometry" />
        </mxCell>
        <mxCell id="cl5pzR8hT98w7Jfpxouv-25" value="" style="edgeStyle=orthogonalEdgeStyle;rounded=0;orthogonalLoop=1;jettySize=auto;html=1;" edge="1" parent="1" source="cl5pzR8hT98w7Jfpxouv-16" target="cl5pzR8hT98w7Jfpxouv-23">
          <mxGeometry relative="1" as="geometry" />
        </mxCell>
        <mxCell id="cl5pzR8hT98w7Jfpxouv-16" value="user" style="rounded=1;whiteSpace=wrap;html=1;fillColor=#ffe6cc;strokeColor=#d79b00;" vertex="1" parent="1">
          <mxGeometry x="225" y="295" width="95" height="40" as="geometry" />
        </mxCell>
        <mxCell id="cl5pzR8hT98w7Jfpxouv-26" value="" style="edgeStyle=orthogonalEdgeStyle;rounded=0;orthogonalLoop=1;jettySize=auto;html=1;" edge="1" parent="1" source="cl5pzR8hT98w7Jfpxouv-18" target="cl5pzR8hT98w7Jfpxouv-24">
          <mxGeometry relative="1" as="geometry" />
        </mxCell>
        <mxCell id="cl5pzR8hT98w7Jfpxouv-18" value="user" style="rounded=1;whiteSpace=wrap;html=1;fillColor=#ffe6cc;strokeColor=#d79b00;" vertex="1" parent="1">
          <mxGeometry x="417" y="295" width="95" height="40" as="geometry" />
        </mxCell>
        <mxCell id="cl5pzR8hT98w7Jfpxouv-20" value="{ id：1，{ name:&quot;张三&quot;，age:18&amp;nbsp; } }&lt;div&gt;{ id：10，{ name:&quot;李四&quot;，age:19&amp;nbsp; } }&lt;br&gt;&lt;/div&gt;&lt;div&gt;{ id：100，{ name:&quot;王五&quot;，age:20&amp;nbsp; } }&lt;br&gt;&lt;/div&gt;" style="rounded=1;whiteSpace=wrap;html=1;fillColor=#f8cecc;strokeColor=#b85450;" vertex="1" parent="1">
          <mxGeometry x="-89" y="400" width="210" height="60" as="geometry" />
        </mxCell>
        <mxCell id="cl5pzR8hT98w7Jfpxouv-22" value="&lt;div&gt;document文档，类比数据&lt;/div&gt;&lt;div&gt;其中id唯一&lt;/div&gt;" style="text;html=1;align=center;verticalAlign=middle;whiteSpace=wrap;rounded=0;" vertex="1" parent="1">
          <mxGeometry x="588" y="415" width="180" height="30" as="geometry" />
        </mxCell>
        <mxCell id="cl5pzR8hT98w7Jfpxouv-23" value="{ id：1，{ name:&quot;张三&quot;，age:18&amp;nbsp; } }&lt;div&gt;{ id：10，{ name:&quot;李四&quot;，age:19&amp;nbsp; } }&lt;br&gt;&lt;/div&gt;&lt;div&gt;{ id：100，{ name:&quot;王五&quot;，age:20&amp;nbsp; } }&lt;br&gt;&lt;/div&gt;" style="rounded=1;whiteSpace=wrap;html=1;fillColor=#f8cecc;strokeColor=#b85450;" vertex="1" parent="1">
          <mxGeometry x="167" y="400" width="210" height="60" as="geometry" />
        </mxCell>
        <mxCell id="cl5pzR8hT98w7Jfpxouv-24" value="{ id：1，{ name:&quot;张三&quot;，age:18&amp;nbsp; } }&lt;div&gt;{ id：10，{ name:&quot;李四&quot;，age:19&amp;nbsp; } }&lt;br&gt;&lt;/div&gt;&lt;div&gt;{ id：100，{ name:&quot;王五&quot;，age:20&amp;nbsp; } }&lt;br&gt;&lt;/div&gt;" style="rounded=1;whiteSpace=wrap;html=1;fillColor=#f8cecc;strokeColor=#b85450;" vertex="1" parent="1">
          <mxGeometry x="393" y="400" width="210" height="60" as="geometry" />
        </mxCell>
      </root>
    </mxGraphModel>
  </diagram>
</mxfile>
